<?xml version="1.0" encoding="UTF-8" standalone="no"?>
<!-- Created with Inkscape (http://www.inkscape.org/) -->

<svg
   width="120"
   height="120"
   viewBox="0 0 120 120"
   version="1.1"
   id="svg5"
   xmlns="http://www.w3.org/2000/svg"
   xmlns:svg="http://www.w3.org/2000/svg">
  <defs
     id="defs2" />
  <g
     id="layer1">
    <path
       style="fill:none;stroke:#000000;stroke-width:1.135;stroke-miterlimit:4;stroke-dasharray:none;stroke-opacity:1"
       id="path1423"
       d="M 89.343836,111.57956 30.00261,111.20159 0.65932288,59.621601 30.657263,8.4195735 89.998489,8.7975376 119.34178,60.377529 Z" />
    <path
       style="fill:#46cff4;stroke:#46cff4;stroke-width:1px;stroke-linecap:butt;stroke-linejoin:miter;stroke-opacity:1;fill-opacity:1"
       d="m 59.416058,95.912409 c -1.704801,-0.465501 -2.354764,-2.570543 -3.211678,-3.941606 -0.357033,-0.571252 -0.803249,-1.095878 -1.021898,-1.751825 -0.197643,-0.592927 -0.114093,-0.780234 -0.291971,-1.313869 -0.271139,-0.813416 -0.657367,-1.611033 -0.729927,-2.481751 -0.0866,-1.039153 0.06703,-2.039341 0.145985,-3.065694 0.02239,-0.291111 -0.048,-0.587914 0,-0.875912 0.0506,-0.303577 0.217327,-0.577337 0.291971,-0.875913 0.212905,-0.851619 0.263447,-1.850269 0.729927,-2.627737 0.2493,-0.4155 0.324979,-0.132033 0.437956,-0.583941 0.05784,-0.231349 0.04632,-0.384621 0.145986,-0.583942 0.303778,-0.607556 -0.01008,0.156064 0.291971,-0.145985 0.06882,-0.06882 -0.06882,-0.223153 0,-0.291971 0.03441,-0.03441 0.124223,0.04352 0.145985,0 0.122977,-0.245954 0.223727,-1.586845 0.145985,-1.89781 -0.337408,-1.349635 -0.764733,-2.743759 -1.167883,-4.087592 -0.457967,-1.526556 -1.178545,-2.931465 -1.459854,-4.525547 -0.331833,-1.880388 -0.343171,-3.797734 -0.437956,-5.693431 -0.07068,-1.413642 -0.234886,-2.811169 -0.145985,-4.233576 0.08794,-1.407082 0.384453,-2.83716 0.583941,-4.233577 0.137135,-0.959945 0.202409,-1.977517 0.437956,-2.919708 0.176204,-0.704815 0.353113,-1.497296 0.583942,-2.189781 0.06869,-0.20606 0.309704,-0.74766 0.437956,-0.875913 0.03441,-0.03441 0.145986,0.04866 0.145986,0 0,-0.04866 -0.09732,0 -0.145986,0 -0.194647,0 -0.389294,0 -0.583941,0 -0.632604,0 -1.265207,0 -1.897811,0 -0.740451,0 -3.309853,-0.516495 -3.941606,-1.021897 -0.161213,-0.128971 -0.266175,-0.323436 -0.437956,-0.437957 -0.128037,-0.08536 -0.31485,-0.05366 -0.437956,-0.145985 C 47.151908,44.451522 47.007299,41.01457 47.007299,40 c 0,-1.250197 0.1265,-2.554589 0.291971,-3.79562 0.139045,-1.042837 0.202131,-2.18977 0.437956,-3.211679 0.114239,-0.495034 0.25957,-0.984158 0.437956,-1.459854 0.06161,-0.164282 0.236488,-0.271508 0.291971,-0.437956 0.04616,-0.138494 -0.04616,-0.299463 0,-0.437957 0.0016,-0.0048 0.27482,-0.128834 0.291971,-0.145985 0.03441,-0.03441 -0.03441,-0.111576 0,-0.145985 0.110773,-0.110774 0.576985,-0.139029 0.729927,-0.291971 0.03441,-0.03441 -0.04352,-0.124223 0,-0.145986 0.462175,-0.231087 0.158138,0.198698 0.437956,0.291971 1.624239,0.541413 1.184448,1.140966 2.335767,-0.729927 0.219389,-0.356508 0.531466,-0.653328 0.729927,-1.021898 0.145911,-0.270977 0.18149,-0.588662 0.291971,-0.875912 0.604032,-1.570483 0.357423,-0.583255 1.021897,-2.481752 0.716705,-2.047729 1.098012,-4.206963 1.751825,-6.277372 0.463872,-1.468927 0.28617,-1.010295 0.875913,-2.189781 0.06155,-0.123106 0.194647,-0.389295 0.29197,-0.291971 0.03441,0.03441 -0.02699,0.105496 0,0.145985 0.504322,0.756483 1.460038,1.362745 2.043796,2.043796 0.272424,0.317828 0.45577,0.705563 0.729927,1.021898 0.360569,0.416041 0.793264,0.764447 1.167883,1.167883 1.577114,1.69843 0.03751,0.09868 1.167883,1.605839 0.123873,0.165164 0.335526,0.258704 0.437957,0.437957 0.09954,0.174202 0.07554,0.396078 0.145985,0.583941 0.152825,0.407532 0.458875,0.750995 0.583942,1.167883 0.08505,0.283515 0.0742,0.588752 0.145985,0.875913 -0.03379,0.57719 0.433342,0.957854 0.583942,1.459854 0.19423,0.647434 0.341134,1.512029 0.437956,2.189781 0.02724,0.190671 0.09581,0.976272 0,1.167883 -0.121427,0.242853 -0.729927,0.666618 -0.729927,0.729927 0,0.09732 0.194647,0 0.291971,0 0.486618,0 0.973236,0 1.459854,0 0.688574,0 2.419977,0.17967 3.065693,0.437956 0.191688,0.07668 0.281204,0.303598 0.437956,0.437957 1.867213,1.600467 3.649635,3.973841 3.649635,6.569343 0,1.471095 -1.395409,2.950687 -2.481751,3.79562 -0.544256,0.42331 -1.210884,0.704219 -1.751825,1.167883 -0.771223,0.661049 -1.350241,1.444124 -2.189781,2.043796 -0.339792,0.242708 -0.687602,0.479205 -1.021898,0.729927 -0.371934,0.27895 -1.03223,0.302302 -1.313869,0.583941 -0.08264,0.08264 -0.02065,0.949608 0,1.021898 0.328686,1.150399 1.091553,1.675495 1.89781,2.481752 0.154895,0.154894 1.838131,2.112197 1.897811,2.189781 0.770178,1.001232 1.366648,2.21946 1.89781,3.357664 0.322102,0.69022 0.748471,1.332887 1.021898,2.043796 0.656527,1.706971 0.843248,3.58832 0.729927,5.40146 -0.114871,1.837928 -0.597484,3.398292 -1.167883,5.109489 -0.252214,0.75664 0.02072,0.671727 -0.437957,1.313868 -0.119999,0.167999 -0.328535,0.262884 -0.437956,0.437957 -0.496305,0.794088 -0.851799,1.99937 -1.605839,2.627737 -0.167182,0.139318 -0.406855,0.16548 -0.583942,0.291971 -0.167999,0.119999 -0.258703,0.335526 -0.437956,0.437956 -0.385214,0.220122 -2.791803,0.702807 -2.481752,1.167883 1.297403,1.946105 2.869766,2.43181 4.379562,3.941606 2.569642,2.569642 4.858162,5.579069 6.423358,8.905109 0.706228,1.500735 1.94248,3.989318 1.167883,5.693431 -0.648663,1.427059 -2.20168,2.122738 -3.50365,2.773723 -2.980324,1.490162 -4.981263,1.820377 -8.175182,1.021898 -0.778589,-0.194648 -1.5744,-0.330153 -2.335767,-0.583942 -1.091117,-0.363706 -1.803845,-0.995888 -2.919708,-0.437956 z"
       id="path54328" />
    <path
       style="fill:none;stroke:#46cff4;stroke-width:1px;stroke-linecap:butt;stroke-linejoin:miter;stroke-opacity:1"
       d="m 46.715328,37.518248 c -1.304317,0.235985 -2.616002,0.291971 -3.941605,0.291971"
       id="path54330" />
    <path
       style="fill:none;stroke:#46cff4;stroke-width:1px;stroke-linecap:butt;stroke-linejoin:miter;stroke-opacity:1"
       d="m 72.408759,36.934307 c 2.273815,0.810244 4.622619,0.994891 7.007299,0.729927"
       id="path54332" />
    <path
       style="fill:none;stroke:#46cff4;stroke-width:1px;stroke-linecap:butt;stroke-linejoin:miter;stroke-opacity:1"
       d="m 52.554745,54.014599 c -2.666721,0.258454 -6.835947,0.698176 -9.197081,-0.875913 -0.17178,-0.11452 -0.262883,-0.328535 -0.437956,-0.437956 -0.222219,-0.138887 -0.508844,-0.151282 -0.729927,-0.291971 -0.872822,-0.555432 -1.571756,-1.346221 -2.335766,-2.043795 -2.053305,-1.874757 -4.069482,-3.684714 -5.839416,-5.839417 -1.337751,-1.628565 -2.811761,-3.592404 -3.649635,-5.547445 -0.176728,-0.412365 -0.158153,-0.885651 -0.291971,-1.313868 -1.35471,-4.335071 0.414905,2.471506 -0.583942,-2.189781 -0.183391,-0.855825 -0.729927,-1.583168 -0.729927,-2.481752"
       id="path54334" />
    <path
       style="fill:none;stroke:#46cff4;stroke-width:1px;stroke-linecap:butt;stroke-linejoin:miter;stroke-opacity:1"
       d="m 67.591241,51.970803 c 4.743713,0.311943 9.374663,-0.662365 14.014598,-1.459854 1.50593,-0.258832 3.075949,-0.246727 4.525548,-0.729927 0.04616,-0.01539 -0.02176,-0.102461 0,-0.145986 0.126894,-0.253788 0.311062,-0.476138 0.437956,-0.729927 0.360229,-0.720457 0.754887,-1.429827 1.021898,-2.189781 1.231954,-3.506332 1.798933,-7.12998 2.043795,-10.802919 0.07146,-1.071848 0.583942,-2.159764 0.583942,-3.211679"
       id="path54336" />
    <path
       style="fill:none;stroke:#46cff4;stroke-width:1px;stroke-linecap:butt;stroke-linejoin:miter;stroke-opacity:1"
       d="m 53.138686,62.627737 c -1.804352,0.03229 -3.599483,-0.02585 -5.40146,-0.145985 -4.068289,-0.271219 -7.635976,0.290288 -11.386861,1.89781 -0.635551,0.272379 -1.683608,0.07777 -2.189781,0.583942 -0.153882,0.153882 -0.145582,0.422914 -0.291971,0.583941 -1.065171,1.171689 -1.306718,1.239068 -2.481752,2.335767 -0.301859,0.281735 -0.545585,0.628167 -0.875912,0.875912 -0.791214,0.59341 -0.828979,0.286007 -1.60584,0.729927 -0.119501,0.06829 -0.164178,0.240854 -0.29197,0.291971 -0.135544,0.05422 -0.294806,-0.02863 -0.437957,0 -0.201132,0.04023 -0.600948,0.38268 -0.729927,0.437956 -0.184415,0.07903 -0.411896,0.04276 -0.583941,0.145986 -0.6317,0.379019 0.358332,0.29197 -0.437956,0.29197"
       id="path54338" />
    <path
       style="fill:none;stroke:#46cff4;stroke-width:1px;stroke-linecap:butt;stroke-linejoin:miter;stroke-opacity:1"
       d="m 71.678832,62.043796 c 4.183426,0.108507 8.382863,0.221169 12.554745,0.583941 1.470616,0.12788 3.520174,0.01102 4.817518,0.875913 0.573039,0.382026 0.800429,0.800428 1.313869,1.313868 0.757047,0.757048 1.750585,1.575775 2.627737,2.189781 0.178283,0.124798 0.430059,0.138089 0.583941,0.291971 0.06882,0.06882 -0.06882,0.223153 0,0.291971 0.108811,0.108811 0.317795,0.04986 0.437957,0.145985 0.425962,0.34077 0.193833,0.469042 0.437956,0.875913 0.07081,0.118022 0.17745,0.215624 0.291971,0.29197 0.04049,0.02699 0.124223,-0.04352 0.145985,0 0.04352,0.08705 -0.03078,0.199642 0,0.291971 0.09324,0.279727 0.246358,0.246358 0.437956,0.437956"
       id="path54340" />
    <path
       style="fill:none;stroke:#46cff4;stroke-width:1px;stroke-linecap:butt;stroke-linejoin:miter;stroke-opacity:1"
       d="m 53.868613,68.905109 c -0.243309,0.194648 -0.451234,0.444596 -0.729927,0.583942 -0.316863,0.158431 -0.687523,0.17494 -1.021898,0.291971 -0.639728,0.223905 -1.242915,0.555288 -1.89781,0.729927 -1.29109,0.344291 -2.637217,0.440063 -3.941606,0.729927 -0.915561,0.203458 -1.748324,0.436789 -2.627737,0.729927 -0.61345,0.204483 -1.289241,0.2351 -1.89781,0.437956 -0.269184,0.08973 -0.454654,0.369138 -0.729927,0.437956 -0.141627,0.03541 -0.299462,-0.04616 -0.437956,0 -0.09233,0.03078 0.01909,0.196537 0,0.291971 -0.03935,0.196742 -0.124982,0.384406 -0.145986,0.583942 -0.07658,0.727527 -0.03189,1.467185 -0.145985,2.189781 -0.178634,1.131347 -0.510578,2.233501 -0.729927,3.357664 -0.796722,4.0832 -6.88e-4,1.170241 -1.021898,4.671533 -0.287187,0.98464 -0.560169,1.996251 -1.021898,2.919708 -0.156929,0.313859 -0.436892,0.557305 -0.583941,0.875912 -0.148457,0.321657 -0.164798,0.691248 -0.291971,1.021898 -0.632732,1.645102 -0.178023,0.203652 -0.875913,1.459854 -0.376425,0.677566 -0.729927,2.292161 -0.729927,3.065694"
       id="path54342" />
    <path
       style="fill:none;stroke:#46cff4;stroke-width:1px;stroke-linecap:butt;stroke-linejoin:miter;stroke-opacity:1"
       d="m 70.510949,67.737226 c 2.099594,1.38373 4.382491,2.015919 6.861314,2.335767 0.581148,0.07499 1.167157,0.107007 1.751825,0.145985 0.194216,0.01295 0.431947,-0.121595 0.583941,0 2.534054,2.027243 3.438,4.691115 4.525548,7.591241 0.774284,2.064758 0.468861,0.589636 1.167883,2.919708 0.128916,0.429719 0.143762,0.890416 0.291971,1.313869 0.478289,1.36654 1.206164,2.688728 1.605839,4.087591 0.335635,1.174723 0.431331,2.455252 0.729927,3.649635 0.118105,0.47242 0.291971,0.328142 0.291971,0.583942"
       id="path54344" />
  </g>
</svg>
