<?xml version="1.0" encoding="UTF-8" standalone="no"?>
<!-- Created with Inkscape (http://www.inkscape.org/) -->

<svg
   width="120"
   height="120"
   viewBox="0 0 120 120"
   version="1.1"
   id="svg5"
   xmlns="http://www.w3.org/2000/svg"
   xmlns:svg="http://www.w3.org/2000/svg">
  <defs
     id="defs2" />
  <g
     id="layer1">
    <path
       style="fill:none;stroke:#000000;stroke-width:1.135;stroke-miterlimit:4;stroke-dasharray:none;stroke-opacity:1"
       id="path1423"
       d="M 89.343836,111.57956 30.00261,111.20159 0.65932288,59.621601 30.657263,8.4195735 89.998489,8.7975376 119.34178,60.377529 Z" />
    <path
       style="fill:#dd92ff;stroke:#dd92ff;stroke-width:1px;stroke-linecap:butt;stroke-linejoin:miter;stroke-opacity:1;fill-opacity:1"
       d="m 59.854015,87.737226 c -0.199224,3.144386 0.394456,6.400131 -0.291971,9.489051 -0.126357,0.568604 -0.391961,1.680832 -0.875913,2.043796 -0.123105,0.09233 -0.317794,0.04986 -0.437956,0.145985 -0.137005,0.109605 -0.158757,0.323774 -0.291971,0.437957 -0.554335,0.475145 -1.125302,0.607405 -1.751824,0.875915 -0.161267,0.0691 -0.281027,0.2135 -0.437957,0.29197 -1.601012,0.8005 -4.238141,0.84717 -5.985401,1.0219 -2.048913,0.20489 -4.213824,0.37484 -6.131387,-0.58395 -0.452229,-0.22611 -0.729175,-0.62522 -1.167883,-0.87591 C 42.296937,100.47833 41.630576,100.19918 41.459854,100 41.275195,99.784565 41.192145,99.497069 41.021898,99.270073 40.774152,98.939746 40.414703,98.707665 40.145985,98.394161 39.383928,97.505093 38.685571,96.495369 38.10219,95.474453 37.090056,93.703218 36.45835,91.770415 35.620438,89.927007 34.598992,87.679826 33.921025,85.306034 33.284672,82.919708 32.763151,80.964004 31.929629,79.064201 31.532847,77.080292 30.695286,72.89249 30.477509,68.038189 30.948905,63.79562 c 0.149275,-1.343472 -0.02153,-2.747465 0.145986,-4.087591 0.04416,-0.353267 0.225093,-0.687513 0.29197,-1.021898 0.138408,-0.692037 0.07584,-1.488335 0.145986,-2.189781 0.06891,-0.689087 0.307703,-1.39253 0.437956,-2.043795 0.09179,-0.458937 0.03291,-1.007561 0.145985,-1.459854 0.06356,-0.254228 0.216671,-0.478927 0.291971,-0.729927 0.314045,-1.046816 0.241379,-2.380568 0.729927,-3.357665 0.122512,-0.245023 0.348221,-0.606707 0.437956,-0.875912 0.133364,-0.400092 0.189666,-0.90465 0.291971,-1.313869 0.07686,-0.307456 0.33758,-0.574782 0.437956,-0.875912 0.03078,-0.09233 -0.04352,-0.204922 0,-0.291971 0.07846,-0.156929 0.167907,-0.313892 0.291971,-0.437956 0.03441,-0.03441 0.124223,0.04352 0.145986,0 0.04352,-0.08705 -0.04353,-0.204922 0,-0.291971 0.02176,-0.04352 0.111576,0.03441 0.145985,0 0.05886,-0.05886 0.09552,-0.36226 0.145985,-0.437956 0.09732,-0.145985 0.167907,-0.313892 0.291971,-0.437956 0.03441,-0.03441 0.118993,0.04049 0.145986,0 0.321237,-0.481856 0.543971,-1.107928 0.875912,-1.60584 0.222524,-0.333785 0.669764,-0.532331 0.875912,-0.875912 0.07917,-0.131953 0.06063,-0.309919 0.145986,-0.437956 0.02699,-0.04049 0.124223,0.04352 0.145985,0 0.04353,-0.08705 -0.03078,-0.199642 0,-0.291971 0.08973,-0.269184 0.516388,-0.251109 0.729927,-0.437956 0.234494,-0.205182 0.363616,-0.509602 0.583942,-0.729927 0.474562,-0.474563 1.068885,-0.911153 1.605839,-1.313869 0.208847,-0.156635 0.05725,-0.320598 0.291971,-0.437956 0.130458,-0.06523 0.369596,-0.08689 0.437956,-0.291971 0.03078,-0.09233 -0.04352,-0.204922 0,-0.291971 0.02176,-0.04352 0.111577,0.03441 0.145986,0 0.04866,-0.04866 -0.09732,-0.09732 -0.145986,-0.145985 -0.389389,-0.389389 -1.041327,-1.451834 -1.313868,-1.89781 -1.083746,-1.773401 -2.067977,-3.733024 -2.773723,-5.693431 -0.691333,-1.92037 -1.422104,-3.896628 -2.043796,-5.839416 -0.183448,-0.573277 -0.239114,-1.183704 -0.437956,-1.751825 -0.321261,-0.917888 -1.293979,-2.123352 -1.021898,-3.211679 0.205273,-0.821092 1.018321,-1.877326 1.751825,-2.335766 0.22222,-0.138887 0.50522,-0.157146 0.729927,-0.291971 0.659764,-0.395858 1.263784,-0.877975 1.89781,-1.313868 2.21756,-1.524573 3.987817,-3.745734 6.423358,-4.9635041 0.04352,-0.021762 0,0.097324 0,0.1459854 0,0.4090977 -0.06706,0.9114977 0,1.3138687 0.04841,0.290492 0.225508,0.80945 0.437956,1.021898 0.03441,0.03441 0.111577,-0.03441 0.145986,0 0.04116,0.04116 -0.0026,0.570888 0,0.583941 0.07842,0.392119 0.279004,0.849979 0.437956,1.167884 0.09787,0.195737 -0.03945,0.678658 0,0.875912 0.05755,0.287729 0.145985,0.304582 0.145985,0.583942 0,0.915617 0.07814,1.510008 -0.437956,2.335766 -0.32108,0.513728 -0.994721,0.519486 -0.729927,1.313869 0.14845,0.445349 1.886726,0.60611 1.313869,1.751824 -0.06155,0.123106 -0.230418,0.168866 -0.291971,0.291971 -0.08973,0.179456 -0.06695,0.399527 -0.145986,0.583942 -0.138228,0.322533 -0.472975,0.543014 -0.583941,0.875912 -0.53167,1.595011 0.115072,3.371413 0.291971,4.963504 0.0215,0.193457 -0.04721,0.395106 0,0.583941 0.0118,0.04721 0.134183,-0.04721 0.145985,0 0.04721,0.188836 -0.04721,0.395107 0,0.583942 0.05278,0.211125 0.211148,0.381885 0.291971,0.583942 0.119852,0.299629 -0.289759,0.0022 0.145985,0.437956 0.03441,0.03441 0.124223,-0.04352 0.145986,0 0.04352,0.08705 -0.06882,0.223153 0,0.291971 0.362474,0.362474 2.183446,-1.85973 2.919708,-2.043796 0.04721,-0.0118 -0.02504,0.104258 0,0.145985 0.375544,0.625908 0.908978,1.144489 1.313868,1.751825 0.120715,0.181073 0.161398,0.409844 0.291971,0.583942 0.05839,0.07786 0.204922,0.04352 0.291971,0 0.595038,-0.297519 1.406159,-1.433698 1.89781,-1.751825 0.299607,-0.193863 1.790211,-0.898983 2.043796,-0.729927 0.195772,0.130515 0.416499,0.448685 0.729927,0.291971 0.102232,-0.05112 0.160256,-0.423686 0.291971,-0.291971 0.263561,0.263561 0.537535,1.121477 0.875912,1.459854 0.03441,0.03441 -0.03441,-0.111576 0,-0.145985 0.03441,-0.03441 0.09732,0 0.145985,0 0.04866,-0.291971 0.124897,-0.580667 0.145986,-0.875913 0.09952,-1.393261 0,-2.836025 0,-4.233576 0,-1.215738 0.203061,-2.640545 -0.291971,-3.795621 -0.200815,-0.468569 -0.61047,-0.61047 -0.875912,-0.875912 -0.185299,-0.185299 -0.151282,-0.508844 -0.291971,-0.729927 -0.224739,-0.353161 -0.531467,-0.653329 -0.729927,-1.021898 -0.145911,-0.270978 -0.163,-0.596475 -0.291971,-0.875912 -0.164407,-0.356215 -0.429398,-0.661296 -0.583942,-1.021898 -0.353322,-0.824419 -0.485083,-1.770785 -0.729927,-2.627737 -0.02989,-0.104625 -0.145985,-0.18316 -0.145985,-0.291971 0,-0.09732 0.198392,0.02674 0.291971,0 0.295922,-0.08455 0.575801,-0.223764 0.875912,-0.291971 0.772458,-0.175559 1.552039,-0.322702 2.335767,-0.437956 0.871924,-0.128225 1.748386,-0.233348 2.627737,-0.291971 0.825418,-0.05503 1.662815,0.116991 2.481752,0 0.488785,-0.06983 1.892871,-0.880852 2.189781,-0.583942 0.37342,0.37342 0.530702,1.088025 0.875912,1.60584 0.526309,0.789463 0.915661,1.665461 1.459854,2.481752 0.758202,1.137303 1.306199,2.356277 2.043796,3.503649 0.226363,0.352121 0.519004,0.660316 0.729927,1.021898 0.854769,1.465319 0.745876,3.566211 0.29197,5.109489 -0.191246,0.650239 -0.543726,1.246108 -0.729927,1.89781 -0.04011,0.140369 0.04616,0.299463 0,0.437956 -0.01539,0.04617 -0.111576,-0.03441 -0.145985,0 -0.206454,0.206455 0.05726,0.589612 0,0.875913 -0.09801,0.490039 -0.140734,1.014021 -0.437956,1.459854 -0.231816,0.347723 -0.970017,0.581182 -1.313869,0.875912 -0.397527,0.340738 -0.95097,0.804985 -1.313868,1.167884 -0.03441,0.03441 0,0.09732 0,0.145985 -0.04866,0.04866 -0.08873,0.107812 -0.145986,0.145985 -0.09054,0.06036 -0.222311,0.0624 -0.291971,0.145986 -0.363297,0.435957 -0.641083,0.943231 -0.875912,1.459854 -0.120181,0.264397 -0.327362,1.495245 -0.583942,1.751825 -0.141327,0.141327 -0.31847,0.11499 -0.583941,0.29197 -0.139643,0.0931 -0.539388,1.256991 -0.437956,1.459854 0.865259,1.73052 1.879629,2.528734 3.357664,3.795621 1.077357,0.923449 2.068321,1.916204 3.211679,2.773722 0.190771,0.143079 1.210618,0.772663 1.459854,1.021898 0.755233,0.755233 1.216923,1.88222 1.751825,2.773723 1.008674,1.681123 1.722589,3.160492 2.481751,4.963504 0.578416,1.373737 1.426498,2.673652 1.897811,4.087591 1.648584,4.945754 1.381511,10.201396 1.167883,15.328467 -0.115524,2.77256 -0.145986,5.544085 -0.145986,8.321168 0,2.918442 0.145986,5.834241 0.145986,8.759124 0,1.646225 0.155462,3.922651 -0.583942,5.40146 -1.076378,2.152756 -2.644576,4.123774 -5.109489,4.671533 -0.303603,0.06747 -0.690328,0.228877 -1.021898,0.145985 -0.552565,-0.138141 -1.065496,-0.403827 -1.605839,-0.583942 -3.810273,-1.270091 -5.857945,-2.026165 -7.591241,-5.839416 -0.37469,-0.824317 -0.581818,-1.885066 -0.729927,-2.773722 -0.03818,-0.229089 -0.122949,-1.498293 -0.291971,-1.751825 -0.152694,-0.229041 -0.389294,-0.389295 -0.583941,-0.583942 z"
       id="path45315" />
    <path
       style="fill:none;stroke:#dd92ff;stroke-width:1px;stroke-linecap:butt;stroke-linejoin:miter;stroke-opacity:1"
       d="m 76.934307,82.189781 c 1.064963,0.488295 0.82247,0.589444 1.605839,1.459854 0.208441,0.231601 0.518583,0.354986 0.729927,0.583942 0.634031,0.686866 1.246345,1.403478 1.751825,2.189781 0.904476,1.406962 1.363768,3.080025 2.189781,4.525547 0.447777,0.783611 0.989401,1.630087 1.459854,2.335767 0.111011,0.166517 0.610161,0.756146 0.729927,0.875912 0.03441,0.03441 0.130597,-0.04617 0.145985,0 0.0936,0.280808 0.05238,0.595104 0.145986,0.875912"
       id="path45317" />
    <path
       style="fill:none;stroke:#dd92ff;stroke-width:1px;stroke-linecap:butt;stroke-linejoin:miter;stroke-opacity:1"
       d="m 77.810219,68.175182 c 2.852974,2.023866 5.477546,4.333788 8.029197,6.715329 1.951353,1.821262 0.461646,0.177571 1.313869,1.313869 0.105271,0.140362 0.332684,0.151608 0.437956,0.29197 0.222358,0.296478 0.257978,0.697938 0.437956,1.021898 0.270952,0.487713 0.875912,1.042467 0.875912,1.60584"
       id="path45319" />
    <path
       style="fill:none;stroke:#dd92ff;stroke-width:1px;stroke-linecap:butt;stroke-linejoin:miter;stroke-opacity:1"
       d="m 72.116788,48.759124 c 2.606088,1.117702 5.666153,0.96546 8.321168,0 0.182928,-0.06652 -0.04721,-0.395106 0,-0.583942 0.28832,-1.153278 0.674775,-2.15084 0.875913,-3.357664 0.323639,-1.941836 0.74383,-3.892944 1.021897,-5.839416 0.04656,-0.325928 -0.07951,-0.703864 0,-1.021898 0.06169,-0.246773 0.239096,-0.518426 0.291971,-0.729927 0.07081,-0.283253 -0.04129,-0.586876 0,-0.875912 0.193822,-1.35675 0.426889,-3.536851 0,-4.817518"
       id="path45321" />
    <path
       style="fill:none;stroke:#dd92ff;stroke-width:1px;stroke-linecap:butt;stroke-linejoin:miter;stroke-opacity:1"
       d="m 33.430657,86.715328 c 0.275888,0 0.642878,-0.08705 0.875912,0.145986 0.03441,0.03441 -0.111576,-0.03441 -0.145985,0 -0.03441,0.03441 0,0.09732 0,0.145985 -0.194647,0.09732 -0.393706,0.186284 -0.583942,0.291971 -0.486502,0.270279 -1.782668,1.093972 -2.043795,1.313869 -1.510463,1.271968 -3.20055,3.043434 -4.087592,4.817518"
       id="path45323" />
    <path
       style="fill:none;stroke:#dd92ff;stroke-width:1px;stroke-linecap:butt;stroke-linejoin:miter;stroke-opacity:1"
       d="m 30.218978,68.175182 c -0.465604,1.625832 -1.557508,2.329287 -2.481752,3.649636 -0.311995,0.445707 -0.46571,0.984263 -0.729927,1.459854 -0.515865,0.928556 -1.167883,1.826108 -1.167883,2.919708"
       id="path45325" />
    <path
       style="fill:none;stroke:#dd92ff;stroke-width:1px;stroke-linecap:butt;stroke-linejoin:miter;stroke-opacity:1"
       d="m 35.766423,42.627737 c -1.411433,0.405488 -2.918095,-0.04579 -4.233576,-0.583941 -2.147105,-0.878361 -3.317235,-2.340251 -3.941606,-4.525548 -0.09453,-0.330851 -0.06861,-0.686619 -0.145986,-1.021898 -0.0692,-0.299882 -0.245173,-0.571727 -0.29197,-0.875912 -0.125754,-0.8174 -0.08305,-1.94324 0,-2.773723 0.05861,-0.586056 0.29197,-0.898986 0.29197,-1.459854"
       id="path45327" />
  </g>
</svg>
