<?xml version="1.0" encoding="UTF-8" standalone="no"?>
<!-- Created with Inkscape (http://www.inkscape.org/) -->

<svg
   width="120"
   height="120"
   viewBox="0 0 120 120"
   version="1.1"
   id="svg5"
   xmlns="http://www.w3.org/2000/svg"
   xmlns:svg="http://www.w3.org/2000/svg">
  <defs
     id="defs2" />
  <g
     id="layer1">
    <path
       style="fill:none;stroke:#000000;stroke-width:1.135;stroke-miterlimit:4;stroke-dasharray:none;stroke-opacity:1"
       id="path1423"
       d="M 89.343836,111.57956 30.00261,111.20159 0.65932288,59.621601 30.657263,8.4195735 89.998489,8.7975376 119.34178,60.377529 Z" />
    <path
       style="fill:#006b16;stroke:#006b16;stroke-width:1px;stroke-linecap:butt;stroke-linejoin:miter;stroke-opacity:1;fill-opacity:1"
       d="m 58.248175,95.766423 c -0.384397,-0.175805 -1.046082,-0.17017 -1.313868,-0.437956 -1.122956,-1.122955 -1.272707,-2.107457 -1.897811,-3.357664 -0.113255,-0.22651 0.03086,-0.845048 -0.145985,-1.021898 -0.03441,-0.03441 -0.111576,0.03441 -0.145985,0 -0.0146,-0.0146 -0.0146,-0.423358 0,-0.437956 0.06882,-0.06882 0.223152,0.06882 0.29197,0 0.03864,-0.03864 0,-0.377845 0,-0.437956 0,-0.437957 0,-0.875913 0,-1.313869 0,-0.108811 -0.145985,-0.400782 -0.145985,-0.291971 0,0.03292 0.29054,-0.144554 0.291971,-0.145985 0.142778,-0.142779 -0.251348,-0.170103 -0.291971,-0.291971 -0.04142,-0.124269 -0.05092,-0.488874 -0.145985,-0.583942 -0.03441,-0.03441 -0.111577,0.03441 -0.145986,0 -0.07299,-0.07299 0.07299,-0.364963 0,-0.437956 -0.03441,-0.03441 -0.124223,0.04353 -0.145985,0 -0.04352,-0.08705 0.05399,-0.210992 0,-0.291971 -0.108242,-0.162363 -0.503454,-0.196492 -0.583942,-0.437956 -0.03078,-0.09233 0.05399,-0.210992 0,-0.291971 -0.136343,-0.204514 -0.513018,-0.150124 -0.583941,-0.29197 -0.04353,-0.08705 0.03078,-0.199642 0,-0.291971 -0.06902,-0.207047 -0.354426,-0.20844 -0.437957,-0.291971 -0.194647,-0.194647 0.309682,-0.140082 -0.145985,-0.291971 -0.09233,-0.03078 -0.199642,0.03078 -0.291971,0 -0.153336,-0.05111 -0.258734,-0.421337 -0.291971,-0.437956 C 51.926864,84.2846 51.772816,84.515529 51.678832,84.233577 51.428794,83.483463 51.407478,83.878643 51.094891,83.357664 50.495521,82.358715 50.213757,81.126116 50.072993,80 c -0.08872,-0.709793 0.06151,-1.367967 0.145985,-2.043796 0.04829,-0.386288 -0.05505,-0.782501 0,-1.167883 0.07114,-0.497972 0.210555,-0.971358 0.291971,-1.459854 0.171281,-1.027688 0.04506,-5.850217 -0.291971,-6.861314 -0.128157,-0.384472 0.159694,-2.030087 0,-2.189781 -0.08235,-0.08235 -0.467272,0.03889 -0.583942,0 -0.24346,-0.08115 -1.493405,-0.471507 -1.605839,-0.583941 -0.194647,-0.194648 0.309682,-0.140082 -0.145985,-0.291971 -0.215713,-0.0719 -0.565356,-0.1274 -0.729927,-0.291971 -0.51335,-0.513349 -1.305512,-1.418069 -1.459854,-2.189781 -0.08422,-0.421112 0.08422,-0.892757 0,-1.313869 -0.09561,-0.478045 -0.369483,-2.034758 -0.145986,-2.481751 0.02976,-0.05952 1.370574,0.06756 1.60584,0.145985 0.114087,0.03803 0.511744,0.09785 0.583941,0.145985 0.533424,0.355616 -0.156528,0.213707 0.291971,0.437957 0.224101,0.11205 0.389597,0.43841 0.583942,0.729927 -0.09213,0.211644 0.269873,0.123888 0.29197,0.145985 0.07556,0.07556 0.21641,0.362395 0.291971,0.437956 0.07299,0.07299 0.364964,-0.07299 0.437956,0 0.03441,0.03441 -0.04352,0.124223 0,0.145986 0.252115,0.126057 0.500452,0.145985 0.875913,0.145985 0.06011,0 0.399313,0.03864 0.437956,0 0.145972,-0.145972 0.291971,-4.051229 0.291971,-4.233577 0,-0.697028 0.195448,-1.368138 0.291971,-2.043795 0.05885,-0.411922 0.04778,-3.015262 0.145985,-3.211679 0.02176,-0.04352 0.130597,0.04617 0.145986,0 0.25539,-0.766173 -0.103678,-2.900647 0.145985,-3.649635 0.456594,-1.369784 0.05508,-2.812219 0.291971,-4.233577 0.372262,-2.233572 0.46711,-4.613008 1.167883,-6.715328 0.0317,-0.09509 -0.08174,-0.648185 0,-0.729927 0.03441,-0.03441 0.111576,0.03441 0.145985,0 0.05316,-0.05316 0.226929,-0.956856 0.291971,-1.021898 0.03441,-0.03441 0.111576,0.03441 0.145986,0 0.06882,-0.06882 -0.06882,-0.223153 0,-0.291971 0.242203,-0.242203 0.340779,-0.17039 0.583941,-0.291971 0.431782,-0.215891 0.693877,-0.540324 1.167883,-0.729927 0.739015,-0.295605 1.473081,-0.637012 2.189781,-0.875912 0.03737,-0.01246 2.3782,-0.249538 2.481752,-0.145985 0.03441,0.03441 -0.03441,0.111576 0,0.145985 0.09732,0.09732 0.340633,0.04866 0.437956,0.145985 0.03441,0.03441 -0.04352,0.124224 0,0.145986 0.08705,0.04352 0.210993,-0.05399 0.291971,0 0.09054,0.06036 0.05545,0.231613 0.145986,0.291971 0.08098,0.05399 0.204922,-0.04352 0.29197,0 0.02846,0.01423 0.11431,0.260294 0.145986,0.29197 0.06882,0.06882 0.223152,-0.06882 0.291971,0 0.03441,0.03441 -0.04353,0.124224 0,0.145986 0.08705,0.04352 0.204922,-0.04352 0.29197,0 0.02846,0.01423 0.11431,0.260294 0.145986,0.291971 0.06882,0.06882 0.223152,-0.06882 0.291971,0 0.275793,0.275793 0.366941,0.732564 0.583941,1.021897 0.06529,0.08705 0.231614,0.05545 0.291971,0.145986 0.05398,0.08098 -0.04352,0.204922 0,0.291971 0.02176,0.04352 0.111576,-0.03441 0.145985,0 0.04866,0.04866 0.09732,0.389294 0.145986,0.437956 0.03441,0.03441 0.118993,-0.04049 0.145985,0 0.473042,0.709562 0.780523,2.436959 1.167883,3.211679 0.125551,0.251101 0.05342,0.744203 0.145986,1.021897 0.02176,0.06529 0.129294,0.07922 0.145985,0.145986 0.08881,0.355248 -0.115704,0.820771 0,1.167883 0.06243,0.187276 0.229546,0.396665 0.291971,0.583942 0.131226,0.393678 -0.10088,0.910348 0,1.313868 0.02639,0.105563 0.124646,0.185273 0.145985,0.291971 0.06433,0.321635 -0.07966,0.703275 0,1.021898 0.268771,1.075084 0.157323,1.988507 0.291971,3.065693 0.327665,2.621316 0.145986,5.372429 0.145986,8.029197 0,0.731708 0.179523,1.763659 0,2.481752 -0.05122,0.20488 -0.364267,1.241573 -0.145986,1.459854 0.325222,0.325222 1.17011,-0.464142 1.313869,-0.583941 0.61427,-0.511892 1.219658,-1.052963 1.89781,-1.459854 0.131953,-0.07917 0.314851,-0.05366 0.437956,-0.145986 0.08705,-0.06529 0.05894,-0.226684 0.145986,-0.291971 0.209641,-0.157231 0.49554,-0.174777 0.729927,-0.29197 0.567157,-0.283579 0.339367,-0.489149 0.729927,0.29197 0.345956,0.691913 0.291971,0.166553 0.291971,0.729927 0,0.43963 0.106131,1.035328 0,1.459854 -0.0827,0.330818 -0.347316,0.458005 -0.437957,0.729927 -0.03078,0.09233 0.04353,0.204922 0,0.291971 -0.0079,0.01575 -0.421879,0.267855 -0.437956,0.291971 -0.08536,0.128038 -0.06681,0.306003 -0.145985,0.437956 -0.207787,0.346311 -0.620261,0.474275 -0.875913,0.729927 -0.30911,0.309111 -0.522759,0.960716 -0.729927,1.167883 -0.161265,0.161265 -0.648697,0.28648 -0.875912,0.437957 -0.207096,0.138064 -0.180267,0.326252 -0.291971,0.437956 -0.103227,0.103227 -0.307383,-0.06529 -0.437956,0 -0.04353,0.02176 0.04352,0.124223 0,0.145985 -0.08705,0.04352 -0.199642,-0.03078 -0.291971,0 -0.145001,0.04833 -0.525185,0.3792 -0.583942,0.437956 -0.800842,0.800843 -0.09771,2.678339 -0.29197,3.649635 -0.254627,1.273136 -0.16157,2.6376 -0.291971,3.941606 -0.146991,1.469904 0.01222,2.98081 0.291971,4.379562 0.0668,0.334018 -0.04225,0.683896 0,1.021898 0.151731,1.213852 0.145985,2.415427 0.145985,3.649635 0,0.43686 0.188779,2.688135 0,3.065694 -0.120059,0.240119 -0.463882,0.197837 -0.583942,0.437956 -0.04352,0.08705 0.04353,0.204922 0,0.291971 -0.136944,0.273889 -0.187276,0.06242 -0.437956,0.145985 -0.299942,0.09998 -0.224675,0.382056 -0.291971,0.583942 -0.07706,0.231178 -0.505855,0.281784 -0.583941,0.437956 -0.06529,0.130573 0.02863,0.294806 0,0.437956 0.108433,0.270178 -0.249417,0.267742 -0.291971,0.437956 -0.119457,0.47783 0.220985,1.309855 0,1.751825 -0.254096,0.508192 -0.241579,1.238281 -0.583942,1.751825 -0.02699,0.04049 -0.118992,-0.04049 -0.145985,0 -0.14536,0.21804 -0.240578,0.472964 -0.291971,0.729927 -0.03817,0.190867 0.08705,0.409844 0,0.583942 -0.08208,0.164155 -0.380314,0.265029 -0.437956,0.437956 -0.03078,0.09233 0.03078,0.199641 0,0.291971 -0.07018,0.210529 -0.321874,0.214582 -0.437956,0.29197 -0.278906,0.185938 -0.309571,0.592742 -0.583942,0.729927 -0.137636,0.06882 -0.309918,0.06063 -0.437956,0.145986 -0.04049,0.02699 0.04352,0.124223 0,0.145985 -0.08705,0.04353 -0.197553,-0.0236 -0.291971,0 -0.139424,0.03486 -0.788563,0.385547 -0.875912,0.437956 -0.344048,0.206429 -0.188522,0.358873 -0.583942,0.437957 -0.494013,0.0988 -0.826489,0.133629 -1.459854,0.29197 z"
       id="path35862" />
    <path
       style="fill:#000000;stroke:#000000;stroke-width:1px;stroke-linecap:butt;stroke-linejoin:miter;stroke-opacity:1;fill-opacity:1"
       d="m 57.518248,91.678832 c 0.389295,0 0.778589,0 1.167883,0 0.558019,0 1.054609,0.145986 1.60584,0.145986 1.556816,0 0.654565,-0.07062 1.021898,-0.437957 0.03893,-0.03893 0.321167,-0.262773 0.145985,-0.437956 -0.16105,-0.16105 -0.740466,-0.05217 -1.021898,-0.145985 -0.06529,-0.02176 -0.08443,-0.115209 -0.145985,-0.145986 -0.130574,-0.06529 -0.307383,0.06529 -0.437956,0 -0.04352,-0.02176 0.04352,-0.124223 0,-0.145985 -0.233577,-0.116788 -0.642336,0.116788 -0.875913,0 -0.06155,-0.03078 -0.08443,-0.115209 -0.145985,-0.145985 -0.346744,-0.173373 -1.220823,0 -1.60584,0 -0.09732,0 -0.223152,-0.06882 -0.29197,0 -0.03441,0.03441 0.03441,0.111576 0,0.145985 -0.07299,0.07299 -0.218979,0.07299 -0.291971,0.145985 -0.177897,0.177897 0.839621,0.535554 0.875912,0.583942 0.08759,0.116788 0,0.291971 0,0.437956 z"
       id="path35864" />
    <path
       style="fill:#000000;stroke:#000000;stroke-width:1px;stroke-linecap:butt;stroke-linejoin:miter;stroke-opacity:1;fill-opacity:1"
       d="m 59.124088,88.175182 c -1.125342,0.113287 -1.955914,0.233868 -2.627738,-0.437956 -0.06882,-0.06882 0.06882,-0.223152 0,-0.291971 -0.03441,-0.03441 -0.124223,0.04353 -0.145985,0 -0.0453,-0.09059 0,-0.454596 0,-0.583941 0,-0.93005 0.127265,-0.419236 0.583942,-0.875913 0.03441,-0.03441 -0.04352,-0.124223 0,-0.145985 0.08705,-0.04352 0.204921,0.04352 0.29197,0 0.02846,-0.01423 0.11431,-0.260295 0.145986,-0.291971 0.06882,-0.06882 0.223152,0.06882 0.291971,0 0.157269,-0.157269 0.01742,-0.180833 0.145985,-0.437956 0.02176,-0.04352 0.111576,0.03441 0.145985,0 0.0096,-0.0096 0.268916,-0.391847 0.291971,-0.437956 0.04352,-0.08705 -0.06882,-0.223153 0,-0.291971 0.03441,-0.03441 0.111576,0.03441 0.145986,0 0.192018,-0.192018 -0.145986,-3.70211 -0.145986,-4.233577 0,-1.738686 0.106898,-3.454197 0.437956,-5.109489 0.221667,-1.108334 0,-3.291656 0,-4.525547 0,-0.627001 -0.195179,-1.750229 0,-2.335767 0.180395,-0.541183 0.145986,0.17795 0.145986,-0.29197 0,-1.021859 0.205355,-5.661308 0,-6.277373 -0.214804,-0.64441 -0.145986,0.530389 -0.145986,-0.437956 0,-0.667837 -0.209584,-1.238721 -0.29197,-1.89781 -0.198149,-1.585188 0.102168,-3.620351 0.437956,-4.963504 0.04606,-0.184252 -0.134389,-1.89781 0.145985,-1.89781 0.04866,0 -0.03441,0.111576 0,0.145986 0.03441,0.03441 0.111577,-0.03441 0.145986,0 0.07694,0.07694 0.05545,0.231613 0.145985,0.29197 0.08098,0.05399 0.204922,-0.04352 0.291971,0 0.01577,0.0079 0.273918,0.42893 0.291971,0.437957 0.08705,0.04352 0.223152,-0.06882 0.29197,0 0.06882,0.06882 -0.03078,0.199641 0,0.29197 -0.05457,0.318031 0.243309,0.04866 0.291971,0.145986 0.112001,0.224002 0.09935,0.829281 0.291971,1.021898 0.03441,0.03441 0.111576,-0.03441 0.145985,0 0.137637,0.137636 0,0.389294 0,0.583941 0,0.968095 0.145986,1.577289 0.145986,2.627737 0,0.467354 -0.109381,1.53263 -0.291971,1.897811 -0.136253,0.272506 0.136253,0.749391 0,1.021897 -0.03078,0.06155 -0.129295,0.07922 -0.145985,0.145986 -0.207423,0.829692 -0.0065,2.235123 -0.145986,3.211679 -0.09795,0.685645 0,1.499067 0,2.189781 0,1.557177 0,3.114355 0,4.671533 0,1.241373 -0.01,2.425665 -0.145985,3.649635 -0.08402,0.756225 0,1.575581 0,2.335766 0,1.800487 0,3.600973 0,5.40146 0,1.747651 0.305547,2.212409 1.167883,3.649635 0.193433,0.322389 0.4934,0.659729 0.583942,1.021898 0.02145,0.08581 0.304137,1.301702 0.29197,1.313868 -0.06882,0.06882 -0.195971,-0.016 -0.29197,0 -1.458417,0.24307 -1.651432,0.468995 -2.919708,-0.291971 z"
       id="path35868" />
    <path
       style="fill:none;stroke:#006b16;stroke-width:1px;stroke-linecap:butt;stroke-linejoin:miter;stroke-opacity:1"
       d="m 45.40146,61.313869 c -0.506036,2.610327 -0.737013,5.28736 -1.313869,7.883211 -0.452371,2.035671 -1.180879,3.987092 -1.751825,5.985402 -0.410151,1.435529 -0.686904,2.927924 -1.021897,4.379562 -0.159319,0.690382 -0.424623,1.353413 -0.583942,2.043795 -0.219009,0.949041 -0.514321,1.945021 -0.583942,2.919708 -0.141373,1.979229 0.178849,0.111225 -0.145985,1.897811 -0.251853,1.385189 -0.791791,2.706951 -1.021898,4.087591 -0.14747,0.884823 -0.203749,1.745519 -0.291971,2.627737 -0.04938,0.493792 -0.242591,0.966062 -0.29197,1.459854 -0.053,0.52998 0.053,1.07586 0,1.60584 -0.01996,0.199642 -0.1211,0.384853 -0.145986,0.583941 -0.04009,0.320713 0.143652,1.026564 0,1.313869 -0.244575,0.489151 -0.437956,1.017182 -0.437956,1.605839"
       id="path35870" />
    <path
       style="fill:none;stroke:#006b16;stroke-width:1px;stroke-linecap:butt;stroke-linejoin:miter;stroke-opacity:1"
       d="m 71.678832,59.270073 c 0.990335,2.962917 1.409482,6.201353 1.60584,9.343066 0.0516,0.825639 -0.05894,1.656603 0,2.481752 0.04218,0.590491 0.242808,1.161873 0.29197,1.751824 0.1746,2.0952 0.422274,4.175686 0.583942,6.277373 0.119094,1.548227 -0.110639,3.122587 0,4.671532 0.128542,1.799585 0.129024,3.609044 0.291971,5.40146 0.0751,0.826067 0.232468,1.648715 0.291971,2.481752 0.08941,1.251696 0.04656,2.568542 0.29197,3.795621 0.221037,1.105184 0.875913,1.046374 0.875913,2.335766"
       id="path35872" />
    <path
       style="fill:none;stroke:#006b16;stroke-width:1px;stroke-linecap:butt;stroke-linejoin:miter;stroke-opacity:1"
       d="m 51.678832,46.569343 c -0.767755,0.267874 -1.547445,0.08029 -2.335766,0.145985 -1.819162,0.151597 0.0874,0.08276 -1.167884,0.291971 -0.554017,0.09234 -1.066835,0.01123 -1.605839,0.145986 -0.311056,0.07776 -0.878671,-0.144607 -1.167883,0 -0.04353,0.02176 0.03441,0.111576 0,0.145985 -0.03441,0.03441 -0.111576,-0.03441 -0.145986,0 -0.971736,0.971737 0.21357,-0.101376 -0.145985,0.437956 -0.07635,0.114521 -0.230418,0.168865 -0.291971,0.291971 -0.08233,0.164653 -0.08184,0.537489 -0.145985,0.729927 -0.378381,1.135144 -0.683647,2.31977 -1.021898,3.50365 -0.180295,0.631033 -0.339499,1.286703 -0.583942,1.89781 -0.13517,0.337926 -0.515122,0.6778 -0.583941,1.021898 -0.150113,0.750563 -0.213794,1.588559 -0.437956,2.335766 -0.37902,1.263399 -0.291971,-0.08569 -0.291971,1.167883"
       id="path35874" />
    <path
       style="fill:none;stroke:#006b16;stroke-width:1px;stroke-linecap:butt;stroke-linejoin:miter;stroke-opacity:1"
       d="m 66.277372,46.861314 c 2.019455,-0.539447 3.753081,-0.729927 5.839416,-0.729927 0.308912,0 1.29409,-0.155875 1.60584,0 0.174097,0.08705 -0.02753,0.391251 0,0.583941 0.03509,0.245634 0.09732,0.486618 0.145985,0.729927 0.04866,0.486618 0.09479,0.973497 0.145986,1.459854 0.225966,2.146682 0.605066,4.193216 1.021897,6.277373 0.08359,0.417933 -0.06025,0.892095 0,1.313868 0.110576,0.77403 0.291971,1.545843 0.291971,2.335767"
       id="path35876" />
    <path
       style="fill:none;stroke:#006b16;stroke-width:1.04438px;stroke-linecap:butt;stroke-linejoin:miter;stroke-opacity:1"
       d="m 52.122118,43.123116 c -1.161036,0.464414 -0.340494,0.176024 -1.372173,0.457392 -1.731256,0.472161 -3.540905,0.786545 -5.336235,0.914782 -0.759839,0.05428 -1.526392,0.152465 -2.286958,0.152465 -0.254106,0 -0.508213,0 -0.762319,0 -0.05082,0 -0.152463,-0.05082 -0.152463,0 0,0.05082 0.138502,0.04887 0.152463,0 0.09873,-0.345535 0.119929,-0.709362 0.152464,-1.067247 0.06917,-0.760874 0.129323,-1.523297 0.152464,-2.286958 0.133948,-4.420263 0.152464,-8.838403 0.152464,-13.264353"
       id="path35878" />
    <path
       style="fill:none;stroke:#006b16;stroke-width:1px;stroke-linecap:butt;stroke-linejoin:miter;stroke-opacity:1"
       d="m 65.839416,42.919708 c 2.150724,-0.522162 5.590887,0.05127 7.445256,-0.875912 0.286294,-0.143147 0.164603,-0.392891 0.29197,-0.583942 0.06036,-0.09054 0.235988,-0.05268 0.291971,-0.145985 0.103227,-0.172046 0.07147,-0.397655 0.145986,-0.583942 0.497574,-1.243937 0.955613,-2.336032 1.313868,-3.649635 0.605958,-2.221847 1.084378,-4.566407 1.313869,-6.861314 0.03874,-0.387362 -0.05505,-0.782501 0,-1.167883 0.08656,-0.605958 0.291971,-1.295927 0.291971,-1.89781"
       id="path35880" />
    <path
       style="fill:none;stroke:#006b16;stroke-width:1px;stroke-linecap:butt;stroke-linejoin:miter;stroke-opacity:1"
       d="m 56.350365,33.722628 c -0.432076,-0.7679 -0.991438,-1.441578 -1.751825,-1.89781 -0.792889,-0.475734 -3.473717,-0.631663 -4.379562,-0.291971 -2.424664,0.909249 0.954648,-0.26315 -1.021898,0.583941 -0.184415,0.07903 -0.397654,0.07147 -0.583941,0.145986 -0.270998,0.108399 -0.551895,0.583941 -0.729927,0.583941"
       id="path35882" />
    <path
       style="fill:none;stroke:#006b16;stroke-width:1px;stroke-linecap:butt;stroke-linejoin:miter;stroke-opacity:1"
       d="m 61.313869,33.722628 c 0.243309,-0.243309 0.486618,-0.486618 0.729927,-0.729927 0.317236,-0.317236 0.538276,-0.726467 0.875912,-1.021898 1.33404,-1.167285 3.204656,-0.960336 4.817518,-0.729927 0.270807,0.03869 1.60584,0.254606 1.60584,0.437956"
       id="path35884" />
  </g>
</svg>
