<?xml version="1.0" encoding="UTF-8" standalone="no"?>
<!-- Created with Inkscape (http://www.inkscape.org/) -->

<svg
   width="120"
   height="120"
   viewBox="0 0 120 120"
   version="1.1"
   id="svg5"
   xmlns="http://www.w3.org/2000/svg"
   xmlns:svg="http://www.w3.org/2000/svg">
  <defs
     id="defs2" />
  <g
     id="layer1">
    <path
       style="fill:none;stroke:#000000;stroke-width:1.135;stroke-miterlimit:4;stroke-dasharray:none;stroke-opacity:1"
       id="path1423"
       d="M 89.343836,111.57956 30.00261,111.20159 0.65932288,59.621601 30.657263,8.4195735 89.998489,8.7975376 119.34178,60.377529 Z" />
    <path
       style="fill:#ffa829;stroke:#ffa829;stroke-width:1px;stroke-linecap:butt;stroke-linejoin:miter;stroke-opacity:1;fill-opacity:1"
       d="m 56.20438,96.058394 c -0.194648,0 -0.395107,0.04721 -0.583942,0 -0.04721,-0.0118 0.04352,-0.124223 0,-0.145985 -0.648041,-0.32402 -1.511763,-0.229335 -2.189781,-0.437956 -2.050435,-0.630904 -0.04874,-0.215532 -1.89781,-0.875913 -0.377898,-0.134963 -0.7872,-0.165076 -1.167883,-0.291971 C 47.987096,93.513947 45.317441,92.470725 43.50365,90.656934 43.179035,90.33232 43.009915,89.882704 42.773723,89.489051 41.088258,86.679943 40.889906,83.163648 40.437956,80 c 0.01382,-0.369647 -0.23373,-0.672455 -0.291971,-1.021898 -0.144915,-0.869489 0,-1.890869 0,-2.773722 0,-1.259575 -0.206375,-2.703356 0,-3.941606 0.159256,-0.955536 0.353581,-1.852279 0.583942,-2.773723 0.05901,-0.236044 -0.04772,-0.491343 0,-0.729927 0.195213,-0.976063 0.278702,-1.964185 0.437956,-2.919708 0.06824,-0.409441 0.771239,-3.25299 1.021898,-3.50365 0.03441,-0.03441 0.118993,0.04049 0.145985,0 1.056388,-1.58458 -0.410338,0.382721 0.145986,-0.729927 0.202925,-0.405851 0.575292,-0.70398 0.729927,-1.167883 0.281543,-0.84463 0.545267,-1.655138 0.875912,-2.481752 0.583301,-1.458252 -0.406262,1.104495 0.437956,-0.583941 0.128953,-0.257906 0.08126,-0.59497 0.291971,-0.875913 0.432336,-0.576448 0.613996,-1.285956 1.021898,-1.89781 0.260719,-0.391079 0.510959,-0.729947 0.729927,-1.167883 0.329197,-0.658395 -0.05278,0.158343 0.291971,-0.875912 0.189081,-0.567245 0.642074,-1.060216 0.875912,-1.60584 0.235659,-0.549869 0.366625,-1.097216 0.729927,-1.605839 0.12,-0.167999 0.305788,-0.279354 0.437956,-0.437957 0.746034,-0.89524 1.237754,-2.183535 1.751825,-3.211678 0.1503,-0.3006 0.481391,-0.919348 0.729927,-1.167884 0.03441,-0.03441 0.124223,0.04352 0.145986,0 0.04352,-0.08705 -0.03078,-0.199641 0,-0.29197 0.151889,-0.455668 0.09732,0.04866 0.291971,-0.145986 0.175783,-0.175783 0.2301,-0.731548 0.29197,-0.875912 0.228228,-0.532532 0.698695,-1.121034 1.021898,-1.60584 0.139109,-0.208663 0.488647,-0.152071 0.583942,-0.437956 0.03078,-0.09233 -0.05399,-0.210992 0,-0.291971 0.07949,-0.119233 0.758976,-0.642039 0.875912,-0.875912 0.08973,-0.179456 0.05626,-0.404486 0.145986,-0.583942 0.109866,-0.219732 1.730194,-2.279894 1.89781,-2.335766 0.06529,-0.02176 0.08443,0.115209 0.145985,0.145985 0.148226,0.07411 0.43417,-0.05991 0.583942,0 0.704331,0.281733 1.363044,0.827508 2.043795,1.167884 1.384441,0.69222 2.718857,1.505413 4.087592,2.189781 0.351961,0.17598 0.433963,0.532617 0.729927,0.729927 0.09054,0.06036 0.231613,0.05545 0.29197,0.145985 0.05399,0.08098 -0.04352,0.204922 0,0.291971 0.172689,0.345377 0.512011,0.73205 0.729927,1.167883 0.231042,0.462083 0.672612,0.839499 0.875913,1.313869 0.680551,1.587952 1.351444,3.178419 1.89781,4.817518 0.319821,0.959464 1.049137,1.703623 1.459854,2.627737 0.187492,0.421858 0.246926,0.893601 0.437956,1.313869 0.254807,0.560574 0.621106,1.045265 0.875913,1.605839 0.461019,1.014243 0.795802,2.023867 1.167883,3.065694 0.401509,1.124225 1.235695,1.955261 1.605839,3.065693 0.797802,2.393405 1.547061,4.856932 2.189781,7.29927 1.00346,3.813147 -0.340069,-0.606301 0.583942,2.627737 0.936557,3.277951 2.153734,6.322401 2.335766,9.781022 0.241352,4.58568 -1.721589,6.708415 -4.087591,10.364964 -1.987796,3.478643 0.844522,-1.339776 -1.313868,1.89781 -0.181073,0.271609 -0.270008,0.595998 -0.437957,0.875912 -0.971294,1.618824 -2.23296,2.717111 -4.087591,3.211679 -2.526453,0.673721 -3.661388,0.08642 -5.985401,-0.145985 -0.717105,-0.07171 -1.476413,0.10191 -2.189781,0 -1.452768,-0.207538 0.765995,-0.145986 -1.021898,-0.145986 -0.490416,0 -1.122635,0.08053 -1.60584,0 -0.622917,-0.103819 -1.12275,-0.280687 -1.751824,-0.437956 z"
       id="path59318" />
    <path
       style="fill:none;stroke:#ffa829;stroke-width:1px;stroke-linecap:butt;stroke-linejoin:miter;stroke-opacity:1"
       d="m 55.182482,37.956204 c -0.901161,-1.802321 0.476764,0.799647 -0.875913,-1.167883 -0.615292,-0.89497 -2.773722,-4.586025 -2.773722,-5.69343"
       id="path59320" />
    <path
       style="fill:none;stroke:#ffa829;stroke-width:1px;stroke-linecap:butt;stroke-linejoin:miter;stroke-opacity:1"
       d="m 60.437956,38.540146 c 0.32522,-2.661231 1.89349,-4.954864 3.065694,-7.29927"
       id="path59322" />
    <path
       style="fill:none;stroke:#ffa829;stroke-width:1px;stroke-linecap:butt;stroke-linejoin:miter;stroke-opacity:1"
       d="M 50.80292,45.40146 C 50.257173,44.944862 49.475894,44.925096 48.905109,44.525547 46.998794,43.191127 46.487122,42.313179 44.963504,40.437956 44.374049,39.712474 43.741249,39.018459 43.211679,38.248175 42.097223,36.627149 41.350294,34.861991 40.437956,33.138686 39.628673,31.61004 39.04865,30.119791 38.540146,28.467153 38.266993,27.579407 37.810219,26.758146 37.810219,25.839416"
       id="path59324" />
    <path
       style="fill:none;stroke:#ffa829;stroke-width:1px;stroke-linecap:butt;stroke-linejoin:miter;stroke-opacity:1"
       d="m 66.861314,46.423358 c -0.06148,-1.018756 0.579721,-1.640258 1.313868,-2.335767 1.841585,-1.744658 3.909841,-3.149659 5.40146,-5.255474 0.925905,-1.30716 1.933752,-3.793401 2.335767,-5.40146 0.596642,-2.386569 -0.360942,0.352898 0.437956,-2.043796 0.221617,-0.664849 0.638599,-1.264976 0.875912,-1.89781 0.08712,-0.232329 0.07469,-0.492264 0.145986,-0.729927 0.119469,-0.398232 0.224046,-0.811366 0.437956,-1.167883 0.07081,-0.118022 0.230418,-0.168865 0.291971,-0.291971 0.507769,-1.015538 -0.01806,-0.219748 0.145985,-0.875912 0.119733,-0.478931 0.616874,-0.715672 0.729927,-1.167884 0.06828,-0.273129 0.05771,-0.611073 0.145986,-0.875912 0.180394,-0.541183 0.145985,0.177949 0.145985,-0.291971"
       id="path59326" />
    <path
       style="fill:#ffa829;stroke:#ffa829;stroke-width:1px;stroke-linecap:butt;stroke-linejoin:miter;stroke-opacity:1;fill-opacity:1"
       d="m 47.591241,50.364964 c -0.451107,-0.225554 -0.901427,-0.432053 -1.313869,-0.729928 -3.966113,-2.864415 0.275383,-0.06121 -4.087591,-2.919708 -1.607345,-1.053088 -3.444416,-1.984561 -4.817518,-3.357664 -1.322798,-1.322798 -2.511313,-2.899742 -3.649635,-4.379562 -0.427902,-0.556272 -0.729466,-1.203803 -1.167883,-1.751825 -1.799956,-2.249944 -3.307946,-4.168342 -6.131387,-5.109489 -0.304012,-0.101337 -1.139472,-0.452162 -1.459854,-0.29197 -0.56366,0.281829 -1.049924,0.859041 -1.60584,1.167883 -1.245913,0.692174 -0.234836,-0.09045 -1.313868,0.583941 -1.374054,0.858784 -3.704199,3.083399 -4.233577,4.671533 -0.377561,1.132684 -0.871366,2.445383 -1.021898,3.649635 -0.102282,0.818261 -0.02881,1.661538 -0.145985,2.481752 -0.174367,1.22057 -0.447976,2.547582 -0.291971,3.79562 0.0785,0.627961 0.377367,1.054974 0.583942,1.60584 0.08712,0.232329 0.04521,0.503185 0.145985,0.729927 0.311713,0.701355 1.085386,1.640326 1.459854,2.335766 0.633392,1.1763 1.211042,2.359036 1.89781,3.50365 1.58598,2.643299 -0.174013,-0.202041 0.583942,1.313869 0.488031,0.976061 1.57555,1.444709 2.481752,1.89781 0.496396,0.248198 0.798371,0.542473 1.313868,0.729927 4.907603,1.784583 11.438708,1.789902 16.058394,-0.729927 0.343912,-0.187588 2.919708,-1.446472 2.919708,-1.751825"
       id="path59328" />
    <path
       style="fill:#ffa829;stroke:#ffa829;stroke-width:1px;stroke-linecap:butt;stroke-linejoin:miter;stroke-opacity:1;fill-opacity:1"
       d="m 68.905109,50.80292 c 0.194648,-0.194647 0.350511,-0.438048 0.583942,-0.583942 0.170141,-0.106338 0.407286,-0.05086 0.583942,-0.145985 0.463443,-0.249546 0.858344,-0.612188 1.313868,-0.875913 1.519385,-0.879643 3.166514,-1.57874 4.671533,-2.481752 2.658088,-1.594852 -1.207929,0.610639 1.021898,-0.875912 1.112856,-0.741904 0.66086,-0.07692 1.605839,-1.021898 1.208204,-1.208204 2.295553,-2.587523 3.50365,-3.79562 0.220326,-0.220326 0.53528,-0.340633 0.729927,-0.583942 0.203921,-0.254901 0.291971,-0.583941 0.437956,-0.875912 0.194647,-0.291971 0.364733,-0.601902 0.583942,-0.875913 0.343923,-0.429903 0.837556,-0.727446 1.167883,-1.167883 0.130573,-0.174098 0.138089,-0.430059 0.291971,-0.583941 0.200638,-0.200638 0.502931,-0.26771 0.729927,-0.437957 0.501831,-0.376373 0.930103,-0.982774 1.459854,-1.313868 0.67027,-0.418919 2.293408,-1.185155 3.065693,-1.313869 1.328221,-0.22137 1.47718,0.170241 2.189781,1.167883 0.239999,0.335998 0.635914,0.539915 0.875913,0.875913 0.12649,0.177086 0.171255,0.402869 0.291971,0.583941 0.07635,0.114521 0.240853,0.164179 0.29197,0.291971 0.05422,0.135544 0,0.291971 0,0.437956 0.04866,0.145986 0.07717,0.30032 0.145986,0.437957 0.45477,0.909541 0.520842,1.826868 0.875912,2.773722 0.535793,1.428782 1.266216,2.830455 1.459854,4.379562 0.355449,2.843595 0.493876,7.400718 -1.021898,9.927008 -0.16031,0.267184 -0.423631,0.462742 -0.583941,0.729927 -0.134825,0.224707 -0.131087,0.523075 -0.291971,0.729927 -0.382593,0.491904 -0.949329,0.810515 -1.459854,1.167883 -2.342758,1.639931 -5.66288,2.113523 -8.467153,1.89781 -1.34133,-0.103179 -2.618899,-0.526434 -3.941606,-0.729927 -0.954081,-0.146782 -1.957991,-0.369262 -2.919708,-0.437956 -1.268897,-0.09064 -2.532587,-0.01968 -3.795621,-0.145986 -1.090876,-0.109087 -2.599817,-0.437956 -3.649635,-0.437956"
       id="path59330" />
    <path
       style="fill:none;stroke:#ffa829;stroke-width:1px;stroke-linecap:butt;stroke-linejoin:miter;stroke-opacity:1"
       d="m 40.875912,65.839416 c -3.136771,0.792928 -6.271959,1.604035 -9.343065,2.627737 -1.600746,0.533582 -2.705835,0.962496 -3.941606,2.043796 -0.183109,0.16022 -0.434564,0.2459 -0.583942,0.437956 -0.579776,0.745427 -0.786952,1.789689 -1.167883,2.627737 -0.130219,0.286482 -1.459854,2.237577 -1.459854,2.335767"
       id="path59332" />
    <path
       style="fill:none;stroke:#ffa829;stroke-width:1px;stroke-linecap:butt;stroke-linejoin:miter;stroke-opacity:1"
       d="M 40.437956,80 C 40.291971,80.097324 40.10198,80.149199 40,80.291971 c -0.152314,0.21324 -0.132787,0.521764 -0.291971,0.729927 -2.240313,2.92964 -5.383254,4.972663 -8.175182,7.29927 -2.104003,1.753335 -2.214393,2.135669 -3.211679,4.379562 -0.144303,0.324681 -0.437956,0.676422 -0.437956,1.021898"
       id="path59334" />
    <path
       style="fill:none;stroke:#ffa829;stroke-width:1px;stroke-linecap:butt;stroke-linejoin:miter;stroke-opacity:1"
       d="m 75.182482,65.839416 c 2.159853,-0.04057 4.241362,0.842881 6.277372,1.459854 2.956871,0.896022 2.231476,0.534778 5.109489,1.459854 0.542249,0.174294 1.058183,0.427468 1.605839,0.583942 0.897226,0.179445 1.751536,0.326235 2.627738,0.583941 2.309132,0.679157 4.497089,1.720276 6.715328,2.627738 2.211248,0.904601 0.531899,-0.03123 2.043796,0.875912"
       id="path59336" />
    <path
       style="fill:none;stroke:#ffa829;stroke-width:1px;stroke-linecap:butt;stroke-linejoin:miter;stroke-opacity:1"
       d="m 76.49635,76.350365 c 0.291971,0.291971 0.556339,0.614443 0.875913,0.875912 0.742814,0.607757 1.664363,0.956846 2.481752,1.459854 1.788232,1.100451 3.623098,2.32333 5.255474,3.649635 1.335441,1.085046 2.49203,2.738292 3.79562,3.941606 1.64856,1.521747 3.509565,3.077523 4.525548,5.109489"
       id="path59338" />
  </g>
</svg>
