<?xml version="1.0" encoding="UTF-8" standalone="no"?>
<!-- Created with Inkscape (http://www.inkscape.org/) -->

<svg
   width="120"
   height="120"
   viewBox="0 0 120 120"
   version="1.1"
   id="svg5"
   xmlns="http://www.w3.org/2000/svg"
   xmlns:svg="http://www.w3.org/2000/svg">
  <defs
     id="defs2" />
  <g
     id="layer1">
    <path
       style="fill:none;stroke:#000000;stroke-width:1.135;stroke-miterlimit:4;stroke-dasharray:none;stroke-opacity:1"
       id="path1423"
       d="M 89.343836,111.57956 30.00261,111.20159 0.65932288,59.621601 30.657263,8.4195735 89.998489,8.7975376 119.34178,60.377529 Z" />
    <path
       style="fill:#712901;stroke:#712901;stroke-width:1px;stroke-linecap:butt;stroke-linejoin:miter;stroke-opacity:1;fill-opacity:1"
       d="m 58.540146,79.124088 c 0.353454,-0.176726 1.82837,-0.07655 1.89781,-0.145986 0.03441,-0.03441 -0.03441,-0.111575 0,-0.145985 0.02137,-0.02137 2.665373,-0.912897 2.919708,-1.021898 0.428886,-0.183808 1.218016,-0.744881 1.60584,-1.021898 1.562715,-1.116225 2.925859,-2.608382 3.941605,-4.233576 0.23068,-0.369087 0.353263,-0.798797 0.583942,-1.167884 0.273548,-0.437676 0.70909,-0.959386 0.875913,-1.459854 0.04616,-0.138494 -0.03541,-0.296329 0,-0.437956 0.07454,-0.29817 0.378526,-0.665351 0.437956,-1.021898 0.08007,-0.480457 0.06596,-0.979646 0.145985,-1.459854 0.0506,-0.303577 0.460934,-0.495908 0.291971,-0.875912 0.02687,-0.241821 -0.05901,-0.493883 0,-0.729927 0.04255,-0.170214 0.243771,-0.269254 0.291971,-0.437956 0.05347,-0.187158 -0.02414,-0.390798 0,-0.583942 0.07413,-0.59308 0.353406,-1.160007 0.437956,-1.751825 0.18193,-1.273507 -0.0266,-2.683895 -0.145985,-3.941606 -0.315071,0 -0.164506,0.392744 -0.291971,0.583942 -0.709863,1.064794 0.0039,-0.745704 -0.291971,0.437956 -0.11602,0.464081 -0.355414,0.279238 -0.583942,0.583942 -0.712401,0.949872 0.521926,-0.08397 -0.437956,0.875912 -0.498458,0.498458 -1.112715,0.96673 -1.605839,1.459854 -0.210431,0.210431 -0.499906,0.703397 -0.729927,0.875913 -0.123106,0.09233 -0.314851,0.05365 -0.437957,0.145985 -0.08705,0.06529 -0.05894,0.226681 -0.145985,0.291971 -0.246211,0.184658 -0.60064,0.154334 -0.875912,0.291971 -0.415594,0.207796 -0.922779,0.495273 -1.313869,0.729927 -0.118022,0.07081 -0.161397,0.24845 -0.291971,0.29197 -0.184658,0.06155 -0.391943,-0.032 -0.583941,0 -0.979756,0.163293 -1.885282,0.291971 -2.919708,0.291971 -1.074092,0 -4.095689,-0.150034 -4.963504,-0.583941 -0.279828,-0.139886 -0.734536,-0.0023 -1.021898,-0.145986 -0.04352,-0.02176 0.04352,-0.124225 0,-0.145985 -0.257122,-0.128556 -0.280687,0.01128 -0.437956,-0.145986 -0.03441,-0.03441 0.03441,-0.111575 0,-0.145985 -0.06882,-0.06882 -0.223151,0.06882 -0.291971,0 -0.08353,-0.08353 -0.08492,-0.368936 -0.291971,-0.437956 -0.09233,-0.03078 -0.19964,0.03078 -0.29197,0 -0.181656,-0.06055 -0.228931,-0.395926 -0.291971,-0.437956 -0.128038,-0.08536 -0.309919,-0.06063 -0.437956,-0.145986 -0.06305,-0.04203 -0.110316,-0.377406 -0.291971,-0.437956 -0.09233,-0.03078 -0.204921,0.04352 -0.291971,0 -0.02846,-0.01423 -0.114305,-0.260291 -0.145985,-0.291971 -0.03168,-0.03168 -0.277741,-0.117525 -0.291971,-0.145985 -0.04353,-0.08705 0.04352,-0.204921 0,-0.291971 -0.0088,-0.0177 -0.414316,-0.122345 -0.437956,-0.145985 -0.137986,-0.137983 0.176951,-0.330311 -0.145986,-0.437957 -0.09233,-0.03078 -0.223151,0.06882 -0.291971,0 -0.06882,-0.06882 0.03078,-0.19964 0,-0.29197 -0.133784,-0.401353 -0.70172,-0.381543 -0.875912,-0.729927 -0.60559,-1.211181 -1.731905,-2.24798 -2.481752,-3.50365 0,2.464398 0.425868,4.720814 0.729927,7.153285 0.08933,0.714618 0.028,1.481862 0.145985,2.189781 0.117969,0.707812 0.445053,1.349348 0.583942,2.043795 0.06639,0.331991 0.06422,0.69485 0.145985,1.021898 0.04255,0.170214 0.249421,0.267742 0.291971,0.437956 0.507195,2.028779 1.52914,5.639826 2.773723,7.29927 0.347606,0.463475 0.687874,0.635908 1.167883,0.875913 0.223591,0.111794 0.114163,0.260148 0.291971,0.437956 0.797711,0.797711 2.201977,0.535642 3.211679,0.583942 0.389294,0 0.778589,0 1.167883,0 z"
       id="path1618" />
    <path
       style="fill:#712901;stroke:#712901;stroke-width:1px;stroke-linecap:butt;stroke-linejoin:miter;stroke-opacity:1;fill-opacity:1"
       d="m 71.824818,58.686131 c 0.410185,-0.145848 0.659302,-3.713369 0.729927,-4.525547 0.18994,-2.18431 0.716881,-4.71067 0,-6.861314 -0.146716,-0.440145 -0.79724,-1.583119 -0.875913,-1.89781 -0.111659,-0.446639 -0.145888,-0.924445 -0.437956,-1.313869 -0.312713,-0.41695 -0.694395,-0.758505 -1.021898,-1.167883 -0.597309,-0.746637 0.01549,-0.122748 -0.583942,-1.021898 -0.395458,-0.593188 -1.407871,-1.1159 -1.89781,-1.605839 -0.124063,-0.124064 -0.158757,-0.323773 -0.291971,-0.437956 -0.215434,-0.184659 -0.502931,-0.26771 -0.729927,-0.437957 -0.165163,-0.123872 -0.269957,-0.317957 -0.437956,-0.437956 -0.354173,-0.25298 -0.81371,-0.330961 -1.167883,-0.583941 -0.167999,-0.12 -0.258703,-0.335526 -0.437956,-0.437957 -0.174202,-0.09954 -0.396079,-0.07554 -0.583942,-0.145985 -0.628342,-0.235628 -1.232892,-0.742929 -1.89781,-0.875912 -3.896949,-0.77939 -8.054269,0.723399 -11.386861,2.627737 -1.03306,0.59032 -3.183681,1.702828 -3.795621,2.773722 -0.09954,0.174203 -0.07554,0.396079 -0.145985,0.583942 -0.840808,2.242154 -0.875913,3.454606 -0.875913,5.839416 0,0.800785 -0.09936,1.686899 0,2.481752 0.06938,0.555044 0.358849,1.052087 0.437957,1.605839 0.09428,0.659997 0.184354,1.263805 0.437956,1.897811 0.330711,0.826777 0.868628,1.437999 1.167883,2.335766"
       id="path1626" />
    <path
       style="fill:none;stroke:#712901;stroke-width:1px;stroke-linecap:butt;stroke-linejoin:miter;stroke-opacity:1"
       d="m 54.306569,37.664234 c -0.866203,-1.999633 -1.021897,-4.405369 -1.021897,-6.715329 0,-0.589856 -0.116167,-1.316978 0,-1.89781 0.11137,-0.556855 0.29197,-0.898103 0.29197,-1.459854"
       id="path1628" />
    <path
       style="fill:none;stroke:#712901;stroke-width:1px;stroke-linecap:butt;stroke-linejoin:miter;stroke-opacity:1"
       d="m 64.817518,37.810219 c 0.02682,-3.641584 0.583942,-7.173552 0.583942,-10.80292"
       id="path1630" />
    <path
       style="fill:none;stroke:#712901;stroke-width:1.01928px;stroke-linecap:butt;stroke-linejoin:miter;stroke-opacity:1"
       d="m 47.883143,41.112375 c -1.413481,0.01009 -2.658554,-1.217951 -3.571194,-2.231996 -0.565329,-0.628143 -1.183591,-1.209268 -1.636798,-1.934398 -2.639848,-4.223755 -2.293787,-9.842219 -1.041599,-14.433578 0.388256,-1.423603 0.999309,-2.781772 1.487998,-4.166393 0.608988,-1.725464 -0.01221,-0.62541 0.595199,-2.083196 0.04002,-0.09605 0.91395,-2.019373 1.041599,-2.083197 0.245645,-0.122823 0.319106,-0.07978 0.595198,-0.1488 0.622543,0.269455 0.172122,-0.23486 0.2976,-0.297599 0.3472,-0.173601 0.2976,0.185999 0.2976,-0.148801"
       id="path1632" />
    <path
       style="fill:none;stroke:#712901;stroke-width:1px;stroke-linecap:butt;stroke-linejoin:miter;stroke-opacity:1"
       d="m 68.613139,40.583942 c 0.88585,0.06573 0.433274,0.0019 1.167883,-0.291971 C 70.109947,40.160401 70.473995,40.13157 70.80292,40 c 1.692148,-0.676859 0.618335,-0.38216 1.89781,-1.021898 0.234386,-0.117193 0.505219,-0.157146 0.729927,-0.291971 2.422636,-1.453581 4.710034,-5.447982 5.255474,-8.175182 0.260355,-1.301773 0.406815,-2.649156 0.729927,-3.941606 0.215206,-0.860822 0.584435,-1.754781 0.729927,-2.627737 0.12479,-0.748737 0.06177,-1.577847 0.145986,-2.335767 0.08182,-0.736423 0.313454,-1.582157 0.145985,-2.335766 -0.04721,-0.21244 -0.229437,-0.375497 -0.291971,-0.583942 -0.264727,-1.588363 0.03093,-0.199183 -0.437956,-1.605839 -0.136678,-0.410035 -0.524683,-2.276508 -0.729927,-2.481752"
       id="path1634" />
    <path
       style="fill:none;stroke:#712901;stroke-width:1px;stroke-linecap:butt;stroke-linejoin:miter;stroke-opacity:1"
       d="m 45.547445,46.569343 c -1.510697,-0.263262 -2.939041,-0.790043 -4.379562,-1.313869 -0.521425,-0.189609 -1.093689,-0.22456 -1.605839,-0.437956 -0.362145,-0.150894 -0.676468,-0.397941 -1.021898,-0.583941 -1.624191,-0.874565 -3.257156,-1.624648 -4.817518,-2.627738 -3.34618,-2.151115 0.954491,0.569883 -1.751825,-1.459854 -0.313859,-0.235394 -0.708039,-0.348547 -1.021898,-0.583941 -0.275273,-0.206455 -0.461237,-0.514975 -0.729927,-0.729927 -0.221567,-0.177254 -0.502931,-0.26771 -0.729927,-0.437956 -1.194368,-0.895776 0.41589,0.0227 -1.021898,-0.875913 -0.184543,-0.115339 -0.416759,-0.152652 -0.583941,-0.291971 -0.134787,-0.112322 -0.157185,-0.325634 -0.291971,-0.437956 -0.167182,-0.139318 -0.406855,-0.16548 -0.583942,-0.291971 -0.253549,-0.181106 -0.324685,-0.557089 -0.583941,-0.729927 -0.08098,-0.05399 -0.223153,0.06882 -0.291971,0 -0.340633,-0.340632 0.26764,-0.29197 -0.145986,-0.29197"
       id="path1636" />
    <path
       style="fill:none;stroke:#712901;stroke-width:1px;stroke-linecap:butt;stroke-linejoin:miter;stroke-opacity:1"
       d="m 72.262774,45.40146 c 2.184776,-0.496986 4.294228,-1.334086 6.423357,-2.043796 1.192645,-0.397548 2.746933,-0.801865 3.941606,-1.313868 1.094991,-0.469282 1.732908,-0.912057 2.773723,-1.459854 1.429306,-0.752267 3.085126,-1.36494 4.379562,-2.335767 1.092176,-0.819132 2.175364,-1.739468 3.211679,-2.627737 0.325306,-0.278834 0.648846,-0.798067 1.021898,-1.021898 0.838738,-0.503243 0.179107,0.112864 0.583941,-0.291971"
       id="path1638" />
    <path
       style="fill:none;stroke:#712901;stroke-width:1.01488px;stroke-linecap:butt;stroke-linejoin:miter;stroke-opacity:1"
       d="m 46.568829,52.262774 c -2.651849,0.08835 -5.319431,-0.128632 -7.969207,0 -2.559807,0.124264 -5.108674,0.459677 -7.668482,0.583941 -1.001165,0.0486 -2.006217,-0.05115 -3.007248,0 -3.80165,0.194263 -7.614319,0.145986 -11.427542,0.145986"
       id="path1640" />
    <path
       style="fill:none;stroke:#712901;stroke-width:1px;stroke-linecap:butt;stroke-linejoin:miter;stroke-opacity:1"
       d="m 72.262774,52.408759 c 5.687257,0.394881 11.398687,0.378774 17.080292,0 1.065632,-0.07104 2.146441,0.07609 3.211679,0 0.763966,-0.05457 1.736483,-0.03952 2.481751,-0.145985 0.76442,-0.109203 1.558403,-0.291971 2.335767,-0.291971"
       id="path1642" />
    <path
       style="fill:none;stroke:#712901;stroke-width:1px;stroke-linecap:butt;stroke-linejoin:miter;stroke-opacity:1"
       d="m 71.824818,58.686131 c 0.40859,-0.36064 1.964248,1.344903 2.627737,1.897811 0.491134,0.409278 0.760265,0.824726 1.167883,1.313868 0.590326,0.708392 1.27192,1.389939 1.751825,2.189781 0.778529,1.297548 1.093788,2.825435 1.605839,4.233577 0.198429,0.545679 0.646902,1.31663 0.729927,1.89781 0.03441,0.240864 -0.04772,0.491343 0,0.729927 0.05139,0.256963 0.235124,0.474116 0.291971,0.729927 0.116118,0.522533 -0.03339,1.071602 0,1.60584 0.09986,1.597806 0.253148,3.210083 0.145985,4.817518 -0.101825,1.527383 -0.204297,3.139302 0,4.671533 0.04682,0.351155 0.212312,0.676706 0.291971,1.021897 0.442732,1.918506 1.021898,3.71583 1.021898,5.693431"
       id="path1644" />
    <path
       style="fill:none;stroke:#712901;stroke-width:1px;stroke-linecap:butt;stroke-linejoin:miter;stroke-opacity:1"
       d="m 48.029197,57.080292 c -1.777208,2.078815 -3.924074,4.004653 -5.547445,6.277372 -0.668385,0.935739 -0.523316,1.046632 -1.021898,2.043796 -0.581973,1.163946 -0.650239,0.932644 -1.167883,2.189781 -1.666401,4.046973 -1.877125,8.447259 -2.627737,12.70073 -0.296681,1.68119 -0.572833,3.462916 -1.021898,5.109489 -0.201743,0.739724 -0.505733,1.407697 -0.583942,2.189781 -0.08062,0.80622 0,1.670376 0,2.481752"
       id="path1646" />
  </g>
</svg>
